<svg width="108" height="42" viewBox="0 0 108 42" fill="none" xmlns="http://www.w3.org/2000/svg">
<path d="M2.49609 34.3203C3.24609 34.3203 3.94922 34.5078 4.60547 34.8828C5.26172 35.2578 5.94141 35.7031 6.64453 36.2188C7.39453 36.6875 8.21484 37.1094 9.10547 37.4844C10.043 37.8594 11.1211 38.0469 12.3398 38.0469C13.6992 38.0469 14.918 37.8125 15.9961 37.3438C17.1211 36.8281 18.0586 36.1484 18.8086 35.3047C19.6055 34.4141 20.2148 33.3594 20.6367 32.1406C21.1055 30.9219 21.3398 29.5625 21.3398 28.0625C21.3398 26.7031 21.2227 25.4375 20.9883 24.2656C20.8008 23.0469 20.4492 22.0156 19.9336 21.1719C19.418 20.2812 18.7148 19.6016 17.8242 19.1328C16.9336 18.6172 15.8086 18.3594 14.4492 18.3594C13.418 18.3594 12.5508 18.5 11.8477 18.7812C11.1445 19.0625 10.4648 19.3672 9.80859 19.6953C9.15234 20.0234 8.49609 20.3281 7.83984 20.6094C7.18359 20.8906 6.43359 21.0312 5.58984 21.0312C5.58984 19.5312 5.84766 18.125 6.36328 16.8125C6.87891 15.4531 7.44141 14.1406 8.05078 12.875C8.70703 11.6094 9.29297 10.3203 9.80859 9.00781C10.3711 7.64844 10.6523 6.26562 10.6523 4.85938C10.5117 4.85938 10.3008 4.83594 10.0195 4.78906C9.78516 4.69531 9.50391 4.64844 9.17578 4.64844C8.89453 4.60156 8.61328 4.57812 8.33203 4.57812C8.09766 4.53125 7.91016 4.50781 7.76953 4.50781C7.53516 4.60156 7.08984 4.74219 6.43359 4.92969C5.82422 5.07031 5.16797 5.25781 4.46484 5.49219C3.76172 5.72656 3.08203 5.96094 2.42578 6.19531C1.81641 6.42969 1.39453 6.57031 1.16016 6.61719L0.175781 5.63281C0.457031 5.49219 0.902344 5.30469 1.51172 5.07031C2.12109 4.78906 2.77734 4.50781 3.48047 4.22656C4.23047 3.94531 5.02734 3.66406 5.87109 3.38281C6.71484 3.05469 7.51172 2.75 8.26172 2.46875C9.05859 2.1875 9.73828 1.95312 10.3008 1.76562C10.9102 1.53125 11.3555 1.36719 11.6367 1.27344C11.7305 1.22656 11.8711 1.17969 12.0586 1.13281C12.293 1.08594 12.5273 1.03906 12.7617 0.992188C13.043 0.945313 13.2773 0.921875 13.4648 0.921875C13.6992 0.875 13.8633 0.851562 13.957 0.851562C13.957 2.02344 13.8398 3.28906 13.6055 4.64844C13.3711 5.96094 13.0664 7.27344 12.6914 8.58594C12.3633 9.89844 12.0117 11.1406 11.6367 12.3125C11.3086 13.4844 11.0039 14.4688 10.7227 15.2656C12.9727 15.3594 14.9414 15.5703 16.6289 15.8984C18.3164 16.2266 19.7227 16.8359 20.8477 17.7266C21.9727 18.5703 22.8164 19.7891 23.3789 21.3828C23.9414 22.9297 24.2227 25.0156 24.2227 27.6406C24.2227 29.5625 23.8945 31.2734 23.2383 32.7734C22.6289 34.2734 21.7852 35.5859 20.707 36.7109C19.6758 37.7891 18.4336 38.6328 16.9805 39.2422C15.5273 39.8516 13.9805 40.1562 12.3398 40.1562C11.543 40.1562 10.582 40.1094 9.45703 40.0156C8.33203 39.875 7.23047 39.6172 6.15234 39.2422C5.12109 38.8203 4.25391 38.2344 3.55078 37.4844C2.84766 36.6875 2.49609 35.6328 2.49609 34.3203ZM38.8477 37.7656C38.8477 35.6094 38.9883 33.5234 39.2695 31.5078C39.5508 29.4453 39.6914 27.3828 39.6914 25.3203C39.6914 24.8516 39.6445 24.5234 39.5508 24.3359C39.457 24.1484 39.2227 23.9141 38.8477 23.6328C38.5664 23.6328 38.0273 23.7031 37.2305 23.8438C36.4336 23.9844 35.5898 24.125 34.6992 24.2656C33.8555 24.3594 33.0352 24.4766 32.2383 24.6172C31.4883 24.7109 30.9727 24.7812 30.6914 24.8281C30.5977 24.8281 30.4336 24.8281 30.1992 24.8281C30.0117 24.8281 29.8711 24.8281 29.7773 24.8281V22.4375C29.7773 22.3906 29.918 22.3438 30.1992 22.2969C30.4805 22.2031 30.8086 22.0859 31.1836 21.9453C31.5586 21.8047 31.9336 21.6875 32.3086 21.5938C32.7305 21.4531 33.082 21.3359 33.3633 21.2422C33.5977 21.1953 34.0195 21.125 34.6289 21.0312C35.2852 20.8906 35.9414 20.7734 36.5977 20.6797C37.2539 20.5391 37.8633 20.4453 38.4258 20.3984C39.0352 20.3047 39.457 20.2344 39.6914 20.1875C40.4414 17.8438 40.8867 15.5703 41.0273 13.3672C41.2148 11.1641 41.3086 8.84375 41.3086 6.40625C40.1836 6.40625 39.082 6.54688 38.0039 6.82812C36.9258 7.0625 35.8242 7.32031 34.6992 7.60156C33.6211 7.88281 32.5195 8.16406 31.3945 8.44531C30.2695 8.67969 29.1445 8.79688 28.0195 8.79688V7.32031C28.0195 7.22656 28.418 7.03906 29.2148 6.75781C30.0586 6.47656 31.043 6.17188 32.168 5.84375C33.3398 5.46875 34.5352 5.09375 35.7539 4.71875C37.0195 4.34375 38.0508 4.08594 38.8477 3.94531C39.0352 3.89844 39.3867 3.82813 39.9023 3.73438C40.4648 3.64062 41.0273 3.57031 41.5898 3.52344C42.1523 3.42969 42.6914 3.38281 43.207 3.38281C43.7227 3.33594 44.0742 3.3125 44.2617 3.3125C44.2617 5.75 44.1445 8.23438 43.9102 10.7656C43.6758 13.2969 43.4883 15.6641 43.3477 17.8672C43.3008 18.0547 43.2773 18.3125 43.2773 18.6406C43.3242 18.9688 43.3711 19.2969 43.418 19.625C43.418 19.9531 43.418 20.3047 43.418 20.6797H50.4492C50.4492 21.4297 50.2852 21.9922 49.957 22.3672C49.6289 22.7422 49.207 23 48.6914 23.1406C48.2227 23.2344 47.6836 23.2812 47.0742 23.2812C46.5117 23.2344 45.9727 23.2344 45.457 23.2812C44.9414 23.3281 44.4727 23.4688 44.0508 23.7031C43.6758 23.8906 43.4414 24.2656 43.3477 24.8281L40.5352 39.8047L39.6914 41C39.3633 40.9062 39.1289 40.7422 38.9883 40.5078C38.8945 40.2266 38.8242 39.9219 38.7773 39.5938C38.7305 39.2656 38.7305 38.9375 38.7773 38.6094C38.8242 38.2812 38.8477 38 38.8477 37.7656ZM66.9727 17.4453H54.1055C53.7773 17.4453 53.5195 17.2578 53.332 16.8828C53.1445 16.5078 53.0508 16.1797 53.0508 15.8984C53.0508 15.8516 53.0508 15.7578 53.0508 15.6172C53.0977 15.4766 53.1445 15.4062 53.1914 15.4062C55.3945 13.25 57.3164 11.375 58.957 9.78125C60.5977 8.14062 61.957 6.80469 63.0352 5.77344C64.1602 4.69531 65.0508 3.875 65.707 3.3125C66.3633 2.70313 66.7852 2.30469 66.9727 2.11719L67.1836 2.04688C67.2773 2.04688 67.3711 2.04688 67.4648 2.04688C67.7461 2.04688 67.9805 2.21094 68.168 2.53906C68.3555 2.82031 68.4961 3.14844 68.5898 3.52344C68.6836 3.89844 68.7539 4.27344 68.8008 4.64844C68.8477 4.97656 68.8711 5.16406 68.8711 5.21094C68.8711 5.53906 68.918 6.14844 69.0117 7.03906C69.1055 7.92969 69.1992 8.86719 69.293 9.85156C69.3867 10.7891 69.457 11.7031 69.5039 12.5938C69.5977 13.4375 69.6445 14.0234 69.6445 14.3516C69.7383 14.7266 69.8789 15.0078 70.0664 15.1953C70.3008 15.3359 70.5586 15.4297 70.8398 15.4766C71.168 15.5234 71.4492 15.5469 71.6836 15.5469C71.9648 15.5 72.2227 15.4766 72.457 15.4766C73.6289 15.4766 74.6367 15.2422 75.4805 14.7734C76.3711 14.3047 77.1914 13.5078 77.9414 12.3828C77.9414 12.4297 77.9648 12.5938 78.0117 12.875C78.0586 13.1094 78.082 13.2734 78.082 13.3672C78.3164 14.5859 78.293 15.5234 78.0117 16.1797C77.7305 16.8359 77.2852 17.3047 76.6758 17.5859C76.0664 17.8672 75.3398 18.0312 74.4961 18.0781C73.6992 18.0781 72.9258 18.0547 72.1758 18.0078C71.4727 17.9609 70.8398 17.9609 70.2773 18.0078C69.7148 18.0078 69.3867 18.1719 69.293 18.5V38.8906L67.8867 41L66.9727 40.0156V17.4453ZM60.5039 14.3516H65.9883V7.25H65.0742L60.5039 12.3828V14.3516ZM81.1758 28.0625C81.1758 27.2188 81.1992 26.2109 81.2461 25.0391C81.3398 23.8672 81.457 22.625 81.5977 21.3125C81.7383 19.9531 81.9492 18.5938 82.2305 17.2344C82.5586 15.875 82.957 14.5859 83.4258 13.3672C83.9414 12.1484 84.5508 11.0469 85.2539 10.0625C85.957 9.03125 86.8242 8.25781 87.8555 7.74219C88.5117 7.36719 89.3555 6.96875 90.3867 6.54688C91.418 6.125 92.5195 5.89063 93.6914 5.84375C94.9102 5.79687 96.1523 6.05469 97.418 6.61719C98.6836 7.17969 99.8555 8.28125 100.934 9.92188C100.887 9.92188 100.723 9.92188 100.441 9.92188L99.9492 9.99219C99.3398 9.99219 98.8008 9.875 98.332 9.64062C97.9102 9.35938 97.4414 9.07812 96.9258 8.79688C96.457 8.51562 95.9648 8.25781 95.4492 8.02344C94.9805 7.78906 94.418 7.67188 93.7617 7.67188C92.2617 8.04688 90.9961 8.63281 89.9648 9.42969C88.9336 10.1797 88.0664 11.0703 87.3633 12.1016C86.6602 13.1328 86.0977 14.2578 85.6758 15.4766C85.3008 16.6953 85.0195 17.9141 84.832 19.1328C84.6445 20.3516 84.5273 21.5469 84.4805 22.7188C84.4336 23.8438 84.4102 24.8516 84.4102 25.7422V27.0781C84.4102 27.6875 84.4102 28.3438 84.4102 29.0469C84.4102 29.7031 84.4102 30.3359 84.4102 30.9453C84.457 31.5547 84.5039 31.9766 84.5508 32.2109C85.0664 33.3828 85.6055 34.4375 86.168 35.375C86.7773 36.3125 87.4805 37.1094 88.2773 37.7656C89.1211 38.375 90.0586 38.8438 91.0898 39.1719C92.168 39.5 93.4336 39.6641 94.8867 39.6641C96.9961 39.6641 98.7305 39.2656 100.09 38.4688C101.449 37.625 102.527 36.5234 103.324 35.1641C104.121 33.8047 104.684 32.2812 105.012 30.5938C105.34 28.8594 105.504 27.0781 105.504 25.25C105.504 24.0312 105.316 22.8594 104.941 21.7344C104.566 20.6094 104.168 19.5078 103.746 18.4297C103.324 17.3516 102.926 16.2969 102.551 15.2656C102.176 14.2344 101.988 13.1797 101.988 12.1016C101.988 11.9609 101.988 11.75 101.988 11.4688C102.035 11.1875 102.059 11.0234 102.059 10.9766C103.137 11.7734 104.027 12.7344 104.73 13.8594C105.434 14.9375 105.996 16.1094 106.418 17.375C106.84 18.5938 107.145 19.8828 107.332 21.2422C107.52 22.5547 107.613 23.8203 107.613 25.0391C107.613 27.3828 107.379 29.5625 106.91 31.5781C106.488 33.5938 105.738 35.3516 104.66 36.8516C103.629 38.3516 102.223 39.5469 100.441 40.4375C98.6602 41.2812 96.4336 41.7031 93.7617 41.7031C91.9336 41.7031 90.2227 41.3281 88.6289 40.5781C87.082 39.7812 85.7461 38.75 84.6211 37.4844C83.543 36.1719 82.6992 34.6953 82.0898 33.0547C81.4805 31.4141 81.1758 29.75 81.1758 28.0625Z" fill="#EAADEF"/>
</svg>
